<svg width="31" height="31" viewBox="0 0 31 31" fill="none" xmlns="http://www.w3.org/2000/svg">
<path d="M15.5 31C24.0604 31 31 24.0604 31 15.5C31 6.93959 24.0604 0 15.5 0C6.93959 0 0 6.93959 0 15.5C0 24.0604 6.93959 31 15.5 31Z" fill="#F78C18"/>
<path d="M21.8625 13.5572C22.1397 11.677 20.7392 10.6628 18.8277 9.98763L19.4441 7.43597L17.9341 7.05144L17.3302 9.5353C16.9288 9.43056 16.5214 9.33621 16.1145 9.241L16.7263 6.74329L15.2168 6.35788L14.5899 8.90577C14.2601 8.83087 13.9372 8.75414 13.6235 8.67349L13.628 8.66569L11.5384 8.12899L11.1351 9.78754C11.1351 9.78754 12.2591 10.0508 12.2348 10.0668C12.4467 10.0959 12.6388 10.2065 12.7705 10.375C12.9022 10.5435 12.963 10.7567 12.9401 10.9693L12.2352 13.8741C12.2887 13.8879 12.3413 13.9052 12.3925 13.9256L12.2323 13.8851L11.2422 17.9542C11.2216 18.0244 11.1871 18.0899 11.1409 18.1467C11.0947 18.2034 11.0376 18.2504 10.973 18.2849C10.9084 18.3193 10.8375 18.3405 10.7646 18.3471C10.6917 18.3538 10.6182 18.3459 10.5484 18.3238C10.5632 18.3462 9.44709 18.0413 9.44709 18.0413L8.69471 19.8205L10.6654 20.3232C11.0315 20.4191 11.3908 20.5168 11.7441 20.6088L11.1209 23.1842L12.6304 23.5696L13.2513 21.0182C13.6497 21.1282 14.0522 21.2351 14.4587 21.3389L13.8399 23.8788L15.3542 24.2658L15.9801 21.6919C18.5615 22.1927 20.5013 21.9928 21.3203 19.5963C21.4884 19.2601 21.5858 18.893 21.6063 18.5177C21.6269 18.1424 21.5703 17.7669 21.4399 17.4143C21.3096 17.0618 21.1083 16.7397 20.8485 16.4681C20.5887 16.1964 20.276 15.981 19.9296 15.835C20.4576 15.7211 20.9332 15.436 21.2826 15.024C21.6319 14.6121 21.8355 14.0963 21.8616 13.5568L21.8625 13.5572ZM18.405 18.5297C17.9383 20.4542 14.7748 19.4175 13.7444 19.1541L14.5749 15.7376C15.6004 15.9994 18.8921 16.52 18.4057 18.5266L18.405 18.5297ZM18.8689 13.5263C18.4419 15.2798 15.8073 14.3891 14.9522 14.1702L15.7033 11.0693C16.5575 11.2877 19.3103 11.6958 18.8654 13.5243L18.8689 13.5263Z" fill="white"/>
</svg>
