<svg width="20" height="20" viewBox="0 0 20 20" fill="none" xmlns="http://www.w3.org/2000/svg">
<path fill-rule="evenodd" clip-rule="evenodd" d="M0.00012207 9.99979C0.00012207 4.48479 4.48612 -0.000213623 10.0001 -0.000213623C15.5141 -0.000213623 20.0001 4.48479 20.0001 9.99979C20.0001 15.5138 15.5141 19.9998 10.0001 19.9998C8.60512 19.9998 7.25512 19.7188 5.98712 19.1618C5.62112 19.0018 5.45512 18.5748 5.61512 18.2088C5.77512 17.8408 6.20112 17.6758 6.56912 17.8368C7.65212 18.3118 8.80612 18.5528 10.0001 18.5528C14.7151 18.5528 18.5521 14.7148 18.5521 9.99979C18.5521 5.28379 14.7151 1.44779 10.0001 1.44779C5.28412 1.44779 1.44812 5.28379 1.44812 9.99979C1.44812 11.8468 2.02612 13.6038 3.12212 15.0838C3.35912 15.4048 3.29212 15.8578 2.97112 16.0958C2.64912 16.3348 2.19612 16.2688 1.95812 15.9448C0.677122 14.2158 0.00012207 12.1598 0.00012207 9.99979ZM8.81997 13.9692H8.85597C9.14897 13.9622 9.75497 13.7102 9.76097 13.7072C10.779 13.2782 12.794 11.9542 13.608 11.0782L13.657 11.0262C13.757 10.9202 13.906 10.7552 13.941 10.7082C14.091 10.5012 14.171 10.2552 14.171 10.0002C14.171 9.73119 14.08 9.46619 13.913 9.25319C13.886 9.21919 13.77 9.09319 13.676 8.99419L13.597 8.90919C12.805 8.06419 10.743 6.67319 9.65997 6.25319C9.49497 6.18819 9.08697 6.03619 8.86397 6.03019C8.65197 6.02719 8.44697 6.07219 8.25097 6.17519C8.00797 6.30719 7.81597 6.51919 7.71397 6.76619C7.63897 6.94219 7.53897 7.46519 7.53797 7.47319C7.43297 8.05219 7.37297 8.97319 7.37497 9.99919C7.37297 10.9692 7.42697 11.8582 7.52197 12.4362C7.52297 12.4422 7.63597 13.0892 7.75397 13.3182C7.95997 13.7162 8.37797 13.9692 8.81997 13.9692ZM8.96197 7.73319C8.96997 7.68719 8.98397 7.61919 8.99897 7.55019C9.05297 7.57019 9.10097 7.58819 9.13197 7.60019C9.99897 7.93719 11.91 9.22519 12.537 9.89619L12.621 9.98519C12.6229 9.98707 12.6246 9.98895 12.6263 9.99083C12.6269 9.99145 12.6274 9.99207 12.628 9.99269C12.6291 9.99399 12.6303 9.99528 12.6315 9.99658C12.6326 9.99778 12.6338 9.99898 12.635 10.0002C12.624 10.0102 12.614 10.0212 12.605 10.0312C12.604 10.0332 12.552 10.0922 12.547 10.0912C11.94 10.7472 10.126 11.9822 9.19997 12.3722C9.17612 12.3819 9.1454 12.3938 9.11185 12.4067L9.11175 12.4068C9.07639 12.4204 9.03789 12.4353 9.00097 12.4502C8.97997 12.3582 8.96097 12.2632 8.95097 12.2012C8.86897 11.7062 8.82097 10.8822 8.82197 9.99919C8.82097 9.08319 8.87497 8.21419 8.96197 7.73319Z" fill="#001C72"/>
</svg>
