<svg width="14" height="14" viewBox="0 0 14 14" fill="none" xmlns="http://www.w3.org/2000/svg">
<path d="M10.3549 4.11247C10.2149 4.08914 10.0691 4.08331 9.91741 4.08331H4.08407C3.92074 4.08331 3.76324 4.09498 3.61157 4.11831C3.69324 3.95498 3.80991 3.80333 3.94991 3.66333L5.84574 1.76166C6.64491 0.968323 7.9399 0.968323 8.73907 1.76166L9.7599 2.79413C10.1332 3.16163 10.3316 3.6283 10.3549 4.11247Z" stroke="#5E6D80" stroke-linecap="round" stroke-linejoin="round"/>
<path d="M5.24992 11.0833C5.24992 11.5208 5.12742 11.935 4.91159 12.285C4.50909 12.9617 3.76825 13.4167 2.91659 13.4167C2.06492 13.4167 1.32409 12.9617 0.921585 12.285C0.705752 11.935 0.583252 11.5208 0.583252 11.0833C0.583252 9.79417 1.62742 8.75 2.91659 8.75C4.20575 8.75 5.24992 9.79417 5.24992 11.0833Z" stroke="#5E6D80" stroke-miterlimit="10" stroke-linecap="round" stroke-linejoin="round"/>
<path d="M3.78667 11.0714H2.04834" stroke="#5E6D80" stroke-miterlimit="10" stroke-linecap="round" stroke-linejoin="round"/>
<path d="M2.9165 10.2197V11.9639" stroke="#5E6D80" stroke-miterlimit="10" stroke-linecap="round" stroke-linejoin="round"/>
<path d="M12.8334 7.00001V9.91668C12.8334 11.6667 11.6667 12.8333 9.91675 12.8333H4.45092C4.63175 12.6817 4.78925 12.495 4.91175 12.285C5.12758 11.935 5.25008 11.5208 5.25008 11.0833C5.25008 9.79418 4.20591 8.75001 2.91675 8.75001C2.21675 8.75001 1.59258 9.05917 1.16675 9.54333V7.00001C1.16675 5.41334 2.12341 4.30501 3.61091 4.11834C3.76258 4.09501 3.92008 4.08334 4.08341 4.08334H9.91675C10.0684 4.08334 10.2142 4.08917 10.3542 4.1125C11.8592 4.2875 12.8334 5.40168 12.8334 7.00001Z" stroke="#5E6D80" stroke-linecap="round" stroke-linejoin="round"/>
<path d="M12.8334 7.29166H11.0834C10.4417 7.29166 9.91675 7.81666 9.91675 8.45832C9.91675 9.09999 10.4417 9.62499 11.0834 9.62499H12.8334" stroke="#5E6D80" stroke-linecap="round" stroke-linejoin="round"/>
</svg>
