<svg width="200" height="45" viewBox="0 0 200 45" fill="none" xmlns="http://www.w3.org/2000/svg">
<path d="M18.2888 19.7659H6.7215C3.53293 19.7659 0.940186 17.1668 0.940186 13.9705V10.7836C0.940186 7.58731 3.53293 4.98828 6.7215 4.98828H18.2888V7.35867H6.7215C4.83629 7.35867 3.30485 8.89382 3.30485 10.7836V13.9705C3.30485 15.8603 4.83629 17.3955 6.7215 17.3955H18.2888V19.7659Z" fill="white"/>
<path d="M18.2888 11.1893H2.12256V13.5597H18.2888V11.1893Z" fill="white"/>
<path d="M116.357 4.97874H113.992V19.7657H116.357V4.97874Z" fill="white"/>
<path d="M109.309 4.98808L102.36 18.1232C101.824 19.1357 100.777 19.7657 99.6367 19.7657C98.4963 19.7657 97.449 19.1357 96.909 18.1232L89.936 4.98808H92.6126L98.999 17.0127C99.1805 17.3579 99.5017 17.3906 99.6321 17.3906C99.7624 17.3906 100.084 17.3533 100.265 17.0127L106.628 4.98808H109.305H109.309Z" fill="white"/>
<path d="M79.6955 19.7703H72.7272C69.6457 19.7703 67.1414 17.19 67.1414 14.0217V10.7321C67.1414 7.56377 69.6457 4.98341 72.7272 4.98341H79.6955C82.777 4.98341 85.2813 7.56377 85.2813 10.7321V14.0217C85.2813 17.19 82.777 19.7703 79.6955 19.7703ZM72.7272 6.96651C70.7349 6.96651 69.115 8.65564 69.115 10.7367V14.0263C69.115 16.1074 70.7349 17.7966 72.7272 17.7966H79.6955C81.6877 17.7966 83.3076 16.1074 83.3076 14.0263V10.7367C83.3076 8.65564 81.6877 6.96651 79.6955 6.96651H72.7272Z" fill="white"/>
<path d="M40.3713 19.747H37.597L23.0181 4.97874H25.7924L40.3713 19.747Z" fill="white"/>
<path d="M31.6854 10.9654L33.0772 12.3699L25.7924 19.747H23.0181L31.6854 10.9654Z" fill="white"/>
<path d="M40.3713 4.97874L34.4596 10.9654L33.0771 9.5562L37.597 4.97874H40.3713Z" fill="url(#paint0_linear_2_870)"/>
<path d="M47.0186 19.7657H45.0449V4.98808H47.6237C48.8852 4.98808 50.0722 5.60867 50.7983 6.64921L58.004 16.9707C58.3624 17.4793 58.9443 17.7872 59.5634 17.7872H60.4338V4.98808H62.4075V19.7657H59.5634C58.3019 19.7657 57.1149 19.1451 56.3888 18.1092L49.1831 7.78774C48.8247 7.27914 48.2428 6.97117 47.6237 6.97117H47.0186V19.7657Z" fill="white"/>
<path d="M123.065 19.7657H121.091V4.98808H123.67C124.931 4.98808 126.118 5.60867 126.844 6.64921L134.05 16.9707C134.409 17.4793 134.99 17.7872 135.61 17.7872H136.48V4.98808H138.454V19.7657H135.61C134.348 19.7657 133.161 19.1451 132.435 18.1092L125.229 7.78774C124.871 7.27914 124.289 6.97117 123.67 6.97117H123.065V19.7657Z" fill="white"/>
<path d="M184.569 0H165.41C163.32 0 161.383 1.11987 160.341 2.93499C158.088 6.84519 160.904 11.7399 165.41 11.7399H184.569C189.075 11.7399 191.891 6.84985 189.638 2.93499C188.591 1.11987 186.659 0 184.569 0Z" fill="white"/>
<path d="M165.41 45H184.569C186.659 45 188.596 43.8801 189.638 42.065C191.891 38.1548 189.075 33.2601 184.569 33.2601H165.41C160.904 33.2601 158.088 38.1501 160.341 42.065C161.388 43.8801 163.32 45 165.41 45Z" fill="white"/>
<path d="M194.144 16.63H155.826C153.736 16.63 151.799 17.7499 150.756 19.565C149.709 21.3801 149.709 23.6152 150.756 25.4303C151.804 27.2454 153.736 28.3653 155.826 28.3653H194.144C196.234 28.3653 198.171 27.2454 199.213 25.4303C200.261 23.6152 200.261 21.3801 199.213 19.565C198.166 17.7499 196.234 16.63 194.144 16.63Z" fill="white"/>
<path d="M184.574 45C187.808 45 190.43 42.3719 190.43 39.13C190.43 35.8881 187.808 33.2601 184.574 33.2601C181.34 33.2601 178.718 35.8881 178.718 39.13C178.718 42.3719 181.34 45 184.574 45Z" fill="white"/>
<path d="M194.144 16.63H178.057C174.823 16.63 172.201 19.2571 172.201 22.4977C172.201 25.7383 174.823 28.3653 178.057 28.3653H194.144C197.378 28.3653 200 25.7383 200 22.4977C200 19.2571 197.378 16.63 194.144 16.63Z" fill="white"/>
<path d="M7.68213 34.76C7.68213 35.192 7.61413 35.596 7.47813 35.972C7.34213 36.356 7.14613 36.688 6.89013 36.968C6.63413 37.256 6.32213 37.484 5.95413 37.652C5.59413 37.82 5.18613 37.904 4.73013 37.904H4.02213C3.12613 37.904 2.43013 37.628 1.93413 37.076C1.43813 36.524 1.19013 35.768 1.19013 34.808V32.708H1.95813V34.784C1.95813 35.128 1.99813 35.44 2.07812 35.72C2.16613 36 2.29813 36.24 2.47413 36.44C2.65813 36.648 2.88613 36.808 3.15813 36.92C3.43013 37.032 3.75813 37.088 4.14213 37.088H4.67013C5.04613 37.088 5.37413 37.024 5.65413 36.896C5.93413 36.776 6.16613 36.612 6.35013 36.404C6.54213 36.196 6.68213 35.952 6.77013 35.672C6.86613 35.392 6.91412 35.1 6.91412 34.796V27.56H7.68213V34.76ZM10.9357 35C10.7277 35 10.5277 34.972 10.3357 34.916C10.1437 34.852 9.97172 34.748 9.81972 34.604C9.67572 34.46 9.55972 34.272 9.47172 34.04C9.38372 33.8 9.33972 33.504 9.33972 33.152V27.56H10.1197V33.008C10.1197 33.344 10.1917 33.624 10.3357 33.848C10.4877 34.064 10.7317 34.172 11.0677 34.172H11.2717C11.4477 34.172 11.5357 34.308 11.5357 34.58C11.5357 34.86 11.4477 35 11.2717 35H10.9357ZM13.2573 34.172C13.3613 34.172 13.4293 34.208 13.4613 34.28C13.5013 34.344 13.5213 34.444 13.5213 34.58C13.5213 34.724 13.5013 34.832 13.4613 34.904C13.4293 34.968 13.3613 35 13.2573 35H11.2773C11.1733 35 11.1053 34.968 11.0733 34.904C11.0333 34.84 11.0133 34.74 11.0133 34.604C11.0133 34.46 11.0333 34.352 11.0733 34.28C11.1053 34.208 11.1733 34.172 11.2773 34.172H13.2573ZM14.1698 34.172C14.5058 34.172 14.7618 34.088 14.9378 33.92C15.1138 33.752 15.2018 33.52 15.2018 33.224V31.568H15.9818V33.224C15.9818 33.4 16.0098 33.548 16.0658 33.668C16.1298 33.788 16.2098 33.888 16.3058 33.968C16.4018 34.04 16.5098 34.092 16.6298 34.124C16.7498 34.156 16.8738 34.172 17.0018 34.172H17.3618C17.5458 34.172 17.6378 34.308 17.6378 34.58C17.6378 34.86 17.5458 35 17.3618 35H16.9778C16.6898 35 16.4218 34.948 16.1738 34.844C15.9258 34.732 15.7218 34.524 15.5618 34.22C15.3778 34.524 15.1658 34.732 14.9258 34.844C14.6938 34.948 14.4418 35 14.1698 35H13.2578C13.1538 35 13.0858 34.968 13.0538 34.904C13.0138 34.84 12.9938 34.74 12.9938 34.604C12.9938 34.46 13.0138 34.352 13.0538 34.28C13.0858 34.208 13.1538 34.172 13.2578 34.172H14.1698ZM16.7018 30.032H15.7418V29.18H16.7018V30.032ZM15.1778 30.032H14.2178V29.18H15.1778V30.032ZM19.3394 34.172C19.4434 34.172 19.5114 34.208 19.5434 34.28C19.5834 34.344 19.6034 34.444 19.6034 34.58C19.6034 34.724 19.5834 34.832 19.5434 34.904C19.5114 34.968 19.4434 35 19.3394 35H17.3594C17.2554 35 17.1874 34.968 17.1554 34.904C17.1154 34.84 17.0954 34.74 17.0954 34.604C17.0954 34.46 17.1154 34.352 17.1554 34.28C17.1874 34.208 17.2554 34.172 17.3594 34.172H19.3394ZM20.2518 34.172C20.5878 34.172 20.8438 34.088 21.0198 33.92C21.1958 33.752 21.2838 33.52 21.2838 33.224V31.568H22.0638V33.224C22.0638 33.4 22.0918 33.548 22.1478 33.668C22.2118 33.788 22.2918 33.888 22.3878 33.968C22.4838 34.04 22.5918 34.092 22.7118 34.124C22.8318 34.156 22.9558 34.172 23.0838 34.172H23.4438C23.6278 34.172 23.7198 34.308 23.7198 34.58C23.7198 34.86 23.6278 35 23.4438 35H23.0598C22.7718 35 22.5038 34.948 22.2558 34.844C22.0078 34.732 21.8038 34.524 21.6438 34.22C21.4598 34.524 21.2478 34.732 21.0078 34.844C20.7758 34.948 20.5238 35 20.2518 35H19.3398C19.2358 35 19.1678 34.968 19.1358 34.904C19.0958 34.84 19.0758 34.74 19.0758 34.604C19.0758 34.46 19.0958 34.352 19.1358 34.28C19.1678 34.208 19.2358 34.172 19.3398 34.172H20.2518ZM22.5798 37.244H21.6678V36.392H22.5798V37.244ZM21.0198 37.244H20.0958V36.392H21.0198V37.244ZM28.6374 33.284C28.7734 33.62 28.9254 33.852 29.0934 33.98C29.2694 34.108 29.5054 34.172 29.8014 34.172H30.5934C30.6974 34.172 30.7654 34.208 30.7974 34.28C30.8374 34.344 30.8574 34.444 30.8574 34.58C30.8574 34.724 30.8374 34.832 30.7974 34.904C30.7654 34.968 30.6974 35 30.5934 35H29.7414C29.4774 35 29.2534 34.964 29.0694 34.892C28.8934 34.82 28.7414 34.724 28.6134 34.604C28.4934 34.476 28.3894 34.328 28.3014 34.16C28.2214 33.992 28.1454 33.808 28.0734 33.608L26.9094 34.292C26.7014 34.412 26.5014 34.52 26.3094 34.616C26.1174 34.704 25.9094 34.776 25.6854 34.832C25.4614 34.888 25.2134 34.932 24.9414 34.964C24.6774 34.988 24.3734 35 24.0294 35H23.4414C23.3374 35 23.2694 34.968 23.2374 34.904C23.1974 34.84 23.1774 34.74 23.1774 34.604C23.1774 34.46 23.1974 34.352 23.2374 34.28C23.2694 34.208 23.3374 34.172 23.4414 34.172H24.0414C24.3534 34.172 24.6294 34.164 24.8694 34.148C25.1094 34.124 25.3294 34.092 25.5294 34.052C25.7294 34.004 25.9174 33.944 26.0934 33.872C26.2694 33.8 26.4494 33.708 26.6334 33.596L28.6614 32.42C28.5974 32.252 28.5294 32.1 28.4574 31.964C28.3854 31.82 28.2934 31.7 28.1814 31.604C28.0774 31.508 27.9454 31.436 27.7854 31.388C27.6254 31.332 27.4254 31.304 27.1854 31.304H24.4974L24.5694 30.476H27.2934C27.5014 30.476 27.7134 30.5 27.9294 30.548C28.1534 30.596 28.3614 30.7 28.5534 30.86C28.7534 31.012 28.9374 31.24 29.1054 31.544C29.2814 31.848 29.4254 32.252 29.5374 32.756L28.6374 33.284ZM26.8734 37.268H25.8654V36.392H26.8734V37.268ZM32.5698 34.172C32.6738 34.172 32.7418 34.208 32.7738 34.28C32.8138 34.344 32.8338 34.444 32.8338 34.58C32.8338 34.724 32.8138 34.832 32.7738 34.904C32.7418 34.968 32.6738 35 32.5698 35H30.5898C30.4858 35 30.4178 34.968 30.3858 34.904C30.3458 34.84 30.3258 34.74 30.3258 34.604C30.3258 34.46 30.3458 34.352 30.3858 34.28C30.4178 34.208 30.4858 34.172 30.5898 34.172H32.5698ZM33.6503 34.172C33.9623 34.172 34.2103 34.088 34.3943 33.92C34.5863 33.752 34.6823 33.52 34.6823 33.224V31.568H35.4623V33.224C35.4623 33.792 35.3023 34.232 34.9823 34.544C34.6703 34.848 34.2423 35 33.6983 35H32.5703C32.4663 35 32.3983 34.968 32.3663 34.904C32.3263 34.84 32.3063 34.74 32.3063 34.604C32.3063 34.46 32.3263 34.352 32.3663 34.28C32.3983 34.208 32.4663 34.172 32.5703 34.172H33.6503ZM35.1383 37.244H34.2263V36.392H35.1383V37.244ZM33.5783 37.244H32.6543V36.392H33.5783V37.244ZM41.2088 32.144C41.4168 32.376 41.5648 32.608 41.6528 32.84C41.7488 33.064 41.7968 33.284 41.7968 33.5C41.7968 33.932 41.6408 34.292 41.3288 34.58C41.0248 34.86 40.5888 35 40.0208 35H36.6728L36.6128 34.172H39.9248C40.2368 34.172 40.4768 34.1 40.6448 33.956C40.8208 33.812 40.9088 33.624 40.9088 33.392C40.9088 33.28 40.8808 33.156 40.8248 33.02C40.7688 32.884 40.6848 32.756 40.5728 32.636L38.3408 30.116L38.9528 29.54L41.2088 32.144ZM46.2582 34.808C46.2582 35.272 46.1822 35.692 46.0302 36.068C45.8862 36.452 45.6862 36.78 45.4302 37.052C45.1742 37.324 44.8702 37.532 44.5182 37.676C44.1742 37.828 43.7982 37.904 43.3902 37.904H42.6822L42.6222 37.088H43.2102C43.6102 37.088 43.9542 37.024 44.2422 36.896C44.5302 36.768 44.7662 36.596 44.9502 36.38C45.1342 36.172 45.2702 35.932 45.3582 35.66C45.4462 35.388 45.4902 35.104 45.4902 34.808V31.568H46.2582V34.808ZM46.3062 30.032H45.2982V29.156H46.3062V30.032ZM46.3112 37.088H46.5392C46.9312 37.088 47.2672 37.024 47.5472 36.896C47.8272 36.768 48.0552 36.596 48.2312 36.38C48.4152 36.172 48.5512 35.932 48.6392 35.66C48.7272 35.388 48.7712 35.104 48.7712 34.808V31.568H49.5512V34.808C49.5512 35.272 49.4752 35.692 49.3232 36.068C49.1792 36.452 48.9792 36.78 48.7232 37.052C48.4672 37.324 48.1632 37.532 47.8112 37.676C47.4672 37.828 47.0912 37.904 46.6832 37.904H46.3712L46.3112 37.088ZM51.0468 27.56H51.8268V35H51.0468V27.56ZM57.5558 34.172C57.7318 34.172 57.8798 34.152 57.9998 34.112C58.1198 34.064 58.2158 34.008 58.2878 33.944C58.3678 33.872 58.4238 33.796 58.4558 33.716C58.4958 33.636 58.5158 33.56 58.5158 33.488C58.5158 33.408 58.4998 33.3 58.4678 33.164C58.4358 33.028 58.3758 32.828 58.2878 32.564C58.2078 32.3 58.0878 31.948 57.9278 31.508C57.7758 31.068 57.5758 30.504 57.3278 29.816L58.0598 29.516L59.3438 33.176C59.4718 33.536 59.6198 33.792 59.7878 33.944C59.9558 34.096 60.1918 34.172 60.4958 34.172H60.6638C60.8398 34.172 60.9278 34.308 60.9278 34.58C60.9278 34.86 60.8398 35 60.6638 35H60.4958C60.2318 35 59.9798 34.952 59.7398 34.856C59.4998 34.752 59.2798 34.532 59.0798 34.196C58.9118 34.524 58.6998 34.74 58.4438 34.844C58.1958 34.948 57.9238 35 57.6278 35H55.0478L54.9878 34.172H57.5558ZM62.6402 34.172C62.7442 34.172 62.8122 34.208 62.8442 34.28C62.8842 34.344 62.9042 34.444 62.9042 34.58C62.9042 34.724 62.8842 34.832 62.8442 34.904C62.8122 34.968 62.7442 35 62.6402 35H60.6602C60.5562 35 60.4882 34.968 60.4562 34.904C60.4162 34.84 60.3962 34.74 60.3962 34.604C60.3962 34.46 60.4162 34.352 60.4562 34.28C60.4882 34.208 60.5562 34.172 60.6602 34.172H62.6402ZM63.5526 34.172C63.8886 34.172 64.1446 34.088 64.3206 33.92C64.4966 33.752 64.5846 33.52 64.5846 33.224V31.568H65.3646V33.224C65.3646 33.4 65.3926 33.548 65.4486 33.668C65.5126 33.788 65.5926 33.888 65.6886 33.968C65.7846 34.04 65.8926 34.092 66.0126 34.124C66.1326 34.156 66.2566 34.172 66.3846 34.172H66.7446C66.9286 34.172 67.0206 34.308 67.0206 34.58C67.0206 34.86 66.9286 35 66.7446 35H66.3606C66.0726 35 65.8046 34.948 65.5566 34.844C65.3086 34.732 65.1046 34.524 64.9446 34.22C64.7606 34.524 64.5486 34.732 64.3086 34.844C64.0766 34.948 63.8246 35 63.5526 35H62.6406C62.5366 35 62.4686 34.968 62.4366 34.904C62.3966 34.84 62.3766 34.74 62.3766 34.604C62.3766 34.46 62.3966 34.352 62.4366 34.28C62.4686 34.208 62.5366 34.172 62.6406 34.172H63.5526ZM65.3886 30.032H64.3806V29.156H65.3886V30.032ZM68.7222 34.172C68.8262 34.172 68.8942 34.208 68.9262 34.28C68.9662 34.344 68.9862 34.444 68.9862 34.58C68.9862 34.724 68.9662 34.832 68.9262 34.904C68.8942 34.968 68.8262 35 68.7222 35H66.7422C66.6382 35 66.5702 34.968 66.5382 34.904C66.4982 34.84 66.4782 34.74 66.4782 34.604C66.4782 34.46 66.4982 34.352 66.5382 34.28C66.5702 34.208 66.6382 34.172 66.7422 34.172H68.7222ZM68.9147 34.172C69.2267 34.172 69.4627 34.096 69.6227 33.944C69.7827 33.792 69.8627 33.588 69.8627 33.332V32.876C69.8627 32.18 70.0387 31.636 70.3907 31.244C70.7507 30.852 71.2467 30.656 71.8787 30.656C72.5347 30.656 73.0267 30.856 73.3547 31.256C73.6827 31.656 73.8467 32.168 73.8467 32.792V33.164C73.8467 33.548 73.9347 33.812 74.1107 33.956C74.2867 34.1 74.5067 34.172 74.7707 34.172H74.9747C75.0787 34.172 75.1467 34.208 75.1787 34.28C75.2187 34.344 75.2387 34.444 75.2387 34.58C75.2387 34.724 75.2187 34.832 75.1787 34.904C75.1467 34.968 75.0787 35 74.9747 35H74.7707C74.6427 35 74.5147 34.988 74.3867 34.964C74.2667 34.94 74.1467 34.896 74.0267 34.832C73.9147 34.768 73.8107 34.68 73.7147 34.568C73.6187 34.448 73.5347 34.296 73.4627 34.112C73.2467 34.472 72.9907 34.712 72.6947 34.832C72.4067 34.944 72.1107 35 71.8067 35C71.4867 35 71.1827 34.94 70.8947 34.82C70.6067 34.692 70.3787 34.468 70.2107 34.148C70.1387 34.332 70.0507 34.48 69.9467 34.592C69.8427 34.704 69.7347 34.792 69.6227 34.856C69.5107 34.912 69.3907 34.952 69.2627 34.976C69.1427 34.992 69.0267 35 68.9147 35H68.7227C68.6187 35 68.5507 34.968 68.5187 34.904C68.4787 34.84 68.4587 34.74 68.4587 34.604C68.4587 34.46 68.4787 34.352 68.5187 34.28C68.5507 34.208 68.6187 34.172 68.7227 34.172H68.9147ZM73.0787 32.888C73.0787 32.472 72.9867 32.136 72.8027 31.88C72.6187 31.616 72.3027 31.484 71.8547 31.484C71.0227 31.484 70.6067 31.968 70.6067 32.936C70.6067 33.344 70.7187 33.652 70.9427 33.86C71.1747 34.068 71.4707 34.172 71.8307 34.172C72.2387 34.172 72.5467 34.06 72.7547 33.836C72.9707 33.612 73.0787 33.296 73.0787 32.888ZM76.9605 34.172C77.0645 34.172 77.1325 34.208 77.1645 34.28C77.2045 34.344 77.2245 34.444 77.2245 34.58C77.2245 34.724 77.2045 34.832 77.1645 34.904C77.1325 34.968 77.0645 35 76.9605 35H74.9805C74.8765 35 74.8085 34.968 74.7765 34.904C74.7365 34.84 74.7165 34.74 74.7165 34.604C74.7165 34.46 74.7365 34.352 74.7765 34.28C74.8085 34.208 74.8765 34.172 74.9805 34.172H76.9605ZM77.3929 34.172C77.7289 34.172 77.9889 34.088 78.1729 33.92C78.3649 33.752 78.4609 33.52 78.4609 33.224V31.568H79.2409V33.224C79.2409 33.4 79.2689 33.548 79.3249 33.668C79.3889 33.788 79.4689 33.888 79.5649 33.968C79.6689 34.04 79.7809 34.092 79.9009 34.124C80.0289 34.156 80.1569 34.172 80.2849 34.172C80.6609 34.172 80.9449 34.088 81.1369 33.92C81.3369 33.752 81.4369 33.52 81.4369 33.224V31.568H82.2169V33.224C82.2169 33.576 82.3129 33.824 82.5049 33.968C82.7049 34.104 82.9289 34.172 83.1769 34.172C83.4809 34.172 83.7209 34.088 83.8969 33.92C84.0809 33.752 84.1729 33.52 84.1729 33.224V31.568H84.9529V33.224C84.9529 33.792 84.7929 34.232 84.4729 34.544C84.1609 34.848 83.7369 35 83.2009 35C82.9129 35 82.6449 34.948 82.3969 34.844C82.1489 34.732 81.9449 34.524 81.7849 34.22C81.6089 34.524 81.3849 34.732 81.1129 34.844C80.8489 34.948 80.5729 35 80.2849 35C79.9729 35 79.6889 34.948 79.4329 34.844C79.1769 34.732 78.9689 34.524 78.8089 34.22C78.6329 34.524 78.4169 34.732 78.1609 34.844C77.9049 34.948 77.6329 35 77.3449 35H76.9609C76.8569 35 76.7889 34.968 76.7569 34.904C76.7169 34.84 76.6969 34.74 76.6969 34.604C76.6969 34.46 76.7169 34.352 76.7569 34.28C76.7889 34.208 76.8569 34.172 76.9609 34.172H77.3929ZM82.3129 28.592H81.3529V27.752H82.3129V28.592ZM83.0689 30.032H82.1089V29.18H83.0689V30.032ZM81.5449 30.032H80.5849V29.18H81.5449V30.032ZM87.3731 37.088C87.7251 37.088 88.0331 37.032 88.2971 36.92C88.5691 36.808 88.7971 36.656 88.9811 36.464C89.1651 36.272 89.3051 36.048 89.4011 35.792C89.4971 35.544 89.5531 35.28 89.5691 35H88.3691C87.9611 35 87.6251 34.956 87.3611 34.868C87.0971 34.78 86.8891 34.652 86.7371 34.484C86.5851 34.316 86.4771 34.116 86.4131 33.884C86.3571 33.644 86.3291 33.376 86.3291 33.08C86.3291 32.776 86.3731 32.488 86.4611 32.216C86.5491 31.944 86.6771 31.704 86.8451 31.496C87.0131 31.288 87.2211 31.124 87.4691 31.004C87.7251 30.876 88.0171 30.812 88.3451 30.812C88.6091 30.812 88.8611 30.856 89.1011 30.944C89.3411 31.032 89.5531 31.172 89.7371 31.364C89.9211 31.548 90.0651 31.792 90.1691 32.096C90.2811 32.392 90.3371 32.752 90.3371 33.176V34.172H91.4891C91.5851 34.172 91.6491 34.208 91.6811 34.28C91.7211 34.344 91.7411 34.444 91.7411 34.58C91.7411 34.724 91.7211 34.832 91.6811 34.904C91.6491 34.968 91.5851 35 91.4891 35H90.3131C90.2971 35.392 90.2171 35.764 90.0731 36.116C89.9371 36.468 89.7451 36.776 89.4971 37.04C89.2491 37.304 88.9531 37.512 88.6091 37.664C88.2651 37.824 87.8771 37.904 87.4451 37.904H86.1731L86.1011 37.088H87.3731ZM87.0731 33.032C87.0731 33.232 87.0931 33.404 87.1331 33.548C87.1811 33.692 87.2571 33.812 87.3611 33.908C87.4731 33.996 87.6211 34.064 87.8051 34.112C87.9891 34.152 88.2211 34.172 88.5011 34.172H89.5811V33.272C89.5811 32.68 89.4651 32.256 89.2331 32C89.0011 31.744 88.6811 31.616 88.2731 31.616C87.8891 31.616 87.5931 31.744 87.3851 32C87.1771 32.256 87.0731 32.6 87.0731 33.032ZM93.4722 34.172C93.5762 34.172 93.6442 34.208 93.6762 34.28C93.7162 34.344 93.7362 34.444 93.7362 34.58C93.7362 34.724 93.7162 34.832 93.6762 34.904C93.6442 34.968 93.5762 35 93.4722 35H91.4922C91.3882 35 91.3202 34.968 91.2882 34.904C91.2482 34.84 91.2282 34.74 91.2282 34.604C91.2282 34.46 91.2482 34.352 91.2882 34.28C91.3202 34.208 91.3882 34.172 91.4922 34.172H93.4722ZM96.5687 31.16C96.1687 31.16 95.8487 31.288 95.6087 31.544C95.3767 31.8 95.2607 32.112 95.2607 32.48C95.2607 32.688 95.3047 32.872 95.3927 33.032C95.4807 33.192 95.5927 33.336 95.7287 33.464C95.8647 33.592 96.0127 33.704 96.1727 33.8C96.3407 33.896 96.5047 33.98 96.6647 34.052C96.7847 33.98 96.9167 33.9 97.0607 33.812C97.2047 33.716 97.3367 33.604 97.4567 33.476C97.5767 33.348 97.6767 33.204 97.7567 33.044C97.8367 32.884 97.8767 32.708 97.8767 32.516C97.8767 32.108 97.7607 31.78 97.5287 31.532C97.2967 31.284 96.9767 31.16 96.5687 31.16ZM93.4727 35C93.3687 35 93.3007 34.968 93.2687 34.904C93.2287 34.84 93.2087 34.74 93.2087 34.604C93.2087 34.46 93.2287 34.352 93.2687 34.28C93.3007 34.208 93.3687 34.172 93.4727 34.172H95.7767C95.4007 33.964 95.0967 33.712 94.8647 33.416C94.6407 33.12 94.5287 32.772 94.5287 32.372C94.5287 32.108 94.5767 31.856 94.6727 31.616C94.7687 31.368 94.9087 31.152 95.0927 30.968C95.2767 30.784 95.4967 30.636 95.7527 30.524C96.0167 30.412 96.3167 30.356 96.6527 30.356C96.9807 30.356 97.2647 30.412 97.5047 30.524C97.7527 30.636 97.9567 30.788 98.1167 30.98C98.2847 31.164 98.4087 31.372 98.4887 31.604C98.5687 31.836 98.6087 32.072 98.6087 32.312C98.6087 33.048 98.2327 33.668 97.4807 34.172H99.6047C99.9167 34.172 100.157 34.1 100.325 33.956C100.501 33.812 100.589 33.624 100.589 33.392C100.589 33.28 100.561 33.16 100.505 33.032C100.457 32.896 100.369 32.756 100.241 32.612L98.0687 30.092L98.6447 29.552L100.853 32.12C101.061 32.376 101.209 32.616 101.297 32.84C101.385 33.064 101.429 33.284 101.429 33.5C101.429 33.932 101.273 34.292 100.961 34.58C100.657 34.86 100.225 35 99.6647 35H98.3447C97.9767 35 97.6487 34.992 97.3607 34.976C97.0807 34.952 96.8567 34.9 96.6887 34.82C96.5767 34.868 96.4367 34.904 96.2687 34.928C96.1087 34.952 95.9407 34.972 95.7647 34.988C95.5967 34.996 95.4287 35 95.2607 35C95.1007 35 94.9647 35 94.8527 35H93.4727ZM108.415 37.088C108.823 37.088 109.163 37.048 109.435 36.968C109.715 36.888 109.943 36.78 110.119 36.644C110.295 36.516 110.419 36.368 110.491 36.2C110.571 36.04 110.611 35.872 110.611 35.696C110.611 35.504 110.559 35.34 110.455 35.204C110.359 35.068 110.191 35 109.951 35H107.947L108.007 34.172H112.267C112.443 34.172 112.531 34.308 112.531 34.58C112.531 34.86 112.443 35 112.267 35H111.091C111.195 35.088 111.263 35.196 111.295 35.324C111.335 35.452 111.355 35.596 111.355 35.756C111.355 35.972 111.307 36.204 111.211 36.452C111.123 36.7 110.967 36.932 110.743 37.148C110.527 37.364 110.235 37.544 109.867 37.688C109.507 37.832 109.059 37.904 108.523 37.904H107.323C106.427 37.904 105.731 37.628 105.235 37.076C104.739 36.524 104.491 35.768 104.491 34.808V32.708H105.259V34.784C105.259 35.128 105.299 35.44 105.379 35.72C105.467 36 105.599 36.24 105.775 36.44C105.959 36.648 106.187 36.808 106.459 36.92C106.731 37.032 107.059 37.088 107.443 37.088H108.415ZM114.25 34.172C114.354 34.172 114.422 34.208 114.454 34.28C114.494 34.344 114.514 34.444 114.514 34.58C114.514 34.724 114.494 34.832 114.454 34.904C114.422 34.968 114.354 35 114.25 35H112.27C112.166 35 112.098 34.968 112.066 34.904C112.026 34.84 112.006 34.74 112.006 34.604C112.006 34.46 112.026 34.352 112.066 34.28C112.098 34.208 112.166 34.172 112.27 34.172H114.25ZM116.278 34.172C116.486 34.172 116.662 34.172 116.806 34.172C116.958 34.164 117.118 34.164 117.286 34.172C116.83 34.02 116.47 33.868 116.206 33.716C115.95 33.564 115.754 33.408 115.618 33.248C115.482 33.088 115.394 32.916 115.354 32.732C115.322 32.54 115.306 32.328 115.306 32.096C115.306 31.872 115.35 31.644 115.438 31.412C115.526 31.18 115.654 30.972 115.822 30.788C115.998 30.596 116.21 30.44 116.458 30.32C116.714 30.2 117.006 30.14 117.334 30.14C117.638 30.14 117.914 30.184 118.162 30.272C118.41 30.352 118.622 30.484 118.798 30.668C118.982 30.852 119.122 31.092 119.218 31.388C119.322 31.684 119.374 32.048 119.374 32.48V33.02C119.374 33.636 119.186 34.12 118.81 34.472C118.442 34.824 117.858 35 117.058 35H114.25C114.146 35 114.078 34.968 114.046 34.904C114.006 34.84 113.986 34.74 113.986 34.604C113.986 34.46 114.006 34.352 114.046 34.28C114.078 34.208 114.146 34.172 114.25 34.172H116.278ZM117.286 30.968C117.094 30.968 116.918 31.004 116.758 31.076C116.606 31.148 116.474 31.24 116.362 31.352C116.258 31.464 116.178 31.592 116.122 31.736C116.066 31.88 116.038 32.028 116.038 32.18C116.038 32.332 116.054 32.476 116.086 32.612C116.118 32.74 116.206 32.872 116.35 33.008C116.494 33.136 116.71 33.276 116.998 33.428C117.294 33.572 117.702 33.736 118.222 33.92C118.478 33.704 118.606 33.384 118.606 32.96V32.564C118.606 32.068 118.506 31.68 118.306 31.4C118.106 31.112 117.766 30.968 117.286 30.968ZM117.838 28.952H116.83V28.076H117.838V28.952ZM120.879 27.56H121.659V35H120.879V27.56ZM124.492 34.808C124.492 35.272 124.42 35.692 124.276 36.068C124.132 36.452 123.932 36.78 123.676 37.052C123.42 37.324 123.12 37.532 122.776 37.676C122.432 37.828 122.056 37.904 121.648 37.904H120.94L120.88 37.088H121.468C121.868 37.088 122.212 37.024 122.5 36.896C122.788 36.768 123.024 36.596 123.208 36.38C123.392 36.172 123.528 35.932 123.616 35.66C123.704 35.388 123.748 35.104 123.748 34.808V31.568H124.516V33.26C124.516 33.54 124.608 33.764 124.792 33.932C124.984 34.092 125.232 34.172 125.536 34.172H125.668C125.844 34.172 125.932 34.308 125.932 34.58C125.932 34.86 125.844 35 125.668 35H125.536C125.344 35 125.152 34.964 124.96 34.892C124.776 34.82 124.62 34.696 124.492 34.52V34.808ZM127.644 34.172C127.748 34.172 127.816 34.208 127.848 34.28C127.888 34.344 127.908 34.444 127.908 34.58C127.908 34.724 127.888 34.832 127.848 34.904C127.816 34.968 127.748 35 127.644 35H125.664C125.56 35 125.492 34.968 125.46 34.904C125.42 34.84 125.4 34.74 125.4 34.604C125.4 34.46 125.42 34.352 125.46 34.28C125.492 34.208 125.56 34.172 125.664 34.172H127.644ZM129.625 34.172C129.729 34.172 129.797 34.208 129.829 34.28C129.869 34.344 129.889 34.444 129.889 34.58C129.889 34.724 129.869 34.832 129.829 34.904C129.797 34.968 129.729 35 129.625 35H127.645C127.541 35 127.473 34.968 127.441 34.904C127.401 34.84 127.381 34.74 127.381 34.604C127.381 34.46 127.401 34.352 127.441 34.28C127.473 34.208 127.541 34.172 127.645 34.172H129.625ZM132.649 34.136C133.009 33.48 133.349 32.92 133.669 32.456C133.989 31.992 134.297 31.616 134.593 31.328C134.889 31.032 135.177 30.82 135.457 30.692C135.737 30.556 136.021 30.488 136.309 30.488C136.621 30.488 136.901 30.548 137.149 30.668C137.405 30.788 137.625 30.952 137.809 31.16C137.993 31.368 138.133 31.612 138.229 31.892C138.333 32.172 138.385 32.472 138.385 32.792C138.385 33.064 138.341 33.332 138.253 33.596C138.173 33.86 138.045 34.096 137.869 34.304C137.693 34.512 137.469 34.68 137.197 34.808C136.925 34.936 136.605 35 136.237 35H132.901C132.589 35 132.305 34.948 132.049 34.844C131.793 34.732 131.585 34.524 131.425 34.22C131.249 34.524 131.029 34.732 130.765 34.844C130.509 34.948 130.241 35 129.961 35H129.625C129.521 35 129.453 34.968 129.421 34.904C129.381 34.84 129.361 34.74 129.361 34.604C129.361 34.46 129.381 34.352 129.421 34.28C129.453 34.208 129.521 34.172 129.625 34.172H130.009C130.345 34.172 130.605 34.088 130.789 33.92C130.981 33.752 131.077 33.52 131.077 33.224V31.568H131.857V33.224C131.857 33.48 131.929 33.688 132.073 33.848C132.225 34 132.417 34.096 132.649 34.136ZM137.605 32.792C137.605 32.584 137.569 32.392 137.497 32.216C137.433 32.032 137.341 31.876 137.221 31.748C137.101 31.612 136.957 31.508 136.789 31.436C136.629 31.356 136.453 31.316 136.261 31.316C135.837 31.316 135.393 31.544 134.929 32C134.473 32.448 133.965 33.172 133.405 34.172H136.261C136.429 34.172 136.593 34.148 136.753 34.1C136.921 34.044 137.065 33.96 137.185 33.848C137.313 33.728 137.413 33.584 137.485 33.416C137.565 33.24 137.605 33.032 137.605 32.792Z" fill="white"/>
<defs>
<linearGradient id="paint0_linear_2_870" x1="38.4995" y1="3.49998" x2="31.9995" y2="9.99998" gradientUnits="userSpaceOnUse">
<stop stop-color="#00FFB2"/>
<stop offset="1" stop-color="#00FFB2" stop-opacity="0"/>
</linearGradient>
</defs>
</svg>
